<?xml version="1.0" encoding="utf-8"?>
<!-- Generator: Adobe Illustrator 22.0.0, SVG Export Plug-In . SVG Version: 6.00 Build 0)  -->
<svg version="1.1" id="Layer_1" xmlns="http://www.w3.org/2000/svg" xmlns:xlink="http://www.w3.org/1999/xlink" x="0px" y="0px"
	 viewBox="0 0 105.1 168.1" style="enable-background:new 0 0 105.1 168.1;" xml:space="preserve">
<style type="text/css">
	.st0{fill:none;}
	.st1{fill:#FCBF12;}
	.st2{fill:#0A9C58;}
	.st3{opacity:0.2;fill:#BD3A26;enable-background:new    ;}
	.st4{opacity:0.2;fill:#263238;enable-background:new    ;}
	.st5{opacity:0.2;fill:#FFFFFF;enable-background:new    ;}
	.st6{fill:url(#_Path_2_1_);}
	.st7{fill:url(#_Path_3_1_);}
	.st8{fill:#547DBE;}
	.st9{fill:#DA4536;}
	.st10{opacity:0.2;fill:#2D2F78;enable-background:new    ;}
	.st11{opacity:0.2;fill:#3E2723;enable-background:new    ;}
	.st12{fill:url(#_Path_6_1_);}
</style>
<g id="Layer_2_1_">
	<g id="Layer_1-2">
		<g id="_Group_">
			<g id="_Group_2">
				<path class="st0" d="M103,76.2L58.9,0H0l48.6,84.1L0,168.1h58.9L103,92C105.8,87.1,105.8,81.1,103,76.2z"/>
				<path id="_Path_" class="st1" d="M77.7,134.3l-14-24.2l-33.5,58h28.7L78.1,135C78.1,135,77.7,134.3,77.7,134.3z"/>
				<path class="st0" d="M103,76.2L58.9,0H0l48.6,84.1L0,168.1h58.9L103,92C105.8,87.1,105.8,81.1,103,76.2z"/>
				<path class="st2" d="M48.6,84.1l15.1,26.1l-33.5,58H0L48.6,84.1z"/>
				<path class="st0" d="M103,76.2L58.9,0H0l48.6,84.1L0,168.1h58.9L103,92C105.8,87.1,105.8,81.1,103,76.2z"/>
				<path class="st3" d="M58.9,166.8H31l-0.8,1.3h28.7L78.1,135l-0.4-0.7L58.9,166.8L58.9,166.8z"/>
				<path class="st0" d="M103,76.2L58.9,0H0l48.6,84.1L0,168.1h58.9L103,92C105.8,87.1,105.8,81.1,103,76.2z"/>
				<path class="st4" d="M0.8,166.8L0,168.1h30.2l0.8-1.3L0.8,166.8L0.8,166.8z"/>
				<path class="st0" d="M103,76.2L58.9,0H0l48.6,84.1L0,168.1h58.9L103,92C105.8,87.1,105.8,81.1,103,76.2z"/>
				<path class="st5" d="M0,168.1h0.8L49,84.7l-0.4-0.7L0,168.1z"/>
				<path class="st0" d="M103,76.2L58.9,0H0l48.6,84.1L0,168.1h58.9L103,92C105.8,87.1,105.8,81.1,103,76.2z"/>
				
					<radialGradient id="_Path_2_1_" cx="77.86" cy="1044.34" r="58.14" gradientTransform="matrix(1 0 0 1 0 -909.86)" gradientUnits="userSpaceOnUse">
					<stop  offset="0" style="stop-color:#BD3A26;stop-opacity:0.2"/>
					<stop  offset="1" style="stop-color:#BD3A26;stop-opacity:2.000000e-02"/>
				</radialGradient>
				<path id="_Path_2" class="st6" d="M78.1,135l-14.3-24.8l-3.5,6.1L78.1,135z"/>
				<path class="st0" d="M103,76.2L58.9,0H0l48.6,84.1L0,168.1h58.9L103,92C105.8,87.1,105.8,81.1,103,76.2z"/>
				
					<radialGradient id="_Path_3_1_" cx="77.7" cy="1044.71" r="58.62" gradientTransform="matrix(1 0 0 1 0 -909.86)" gradientUnits="userSpaceOnUse">
					<stop  offset="0" style="stop-color:#263238;stop-opacity:0.2"/>
					<stop  offset="1" style="stop-color:#263238;stop-opacity:2.000000e-02"/>
				</radialGradient>
				<path id="_Path_3" class="st7" d="M60.2,116.3l3.5-6.1L48.6,84.1l-7.2,12.5C41.4,96.5,60.2,116.3,60.2,116.3z"/>
				<path class="st0" d="M103,76.2L58.9,0H0l48.6,84.1L0,168.1h58.9L103,92C105.8,87.1,105.8,81.1,103,76.2z"/>
				<g id="_Group_3">
					<g id="_Group_4">
						<path id="_Path_4" class="st8" d="M30.2,0H0l78.1,135l15.1-26.1l0,0L30.2,0z"/>
					</g>
				</g>
				<path class="st0" d="M103,76.2L58.9,0H0l48.6,84.1L0,168.1h58.9L103,92C105.8,87.1,105.8,81.1,103,76.2z"/>
				<path class="st9" d="M103,92c2.8-4.9,2.8-10.9,0-15.8L58.9,0H30.2l63,108.9L103,92z"/>
				<path class="st0" d="M103,76.2L58.9,0H0l48.6,84.1L0,168.1h58.9L103,92C105.8,87.1,105.8,81.1,103,76.2z"/>
				<path class="st10" d="M93.2,108.9l-0.4-0.6l-14.7,25.5L0.8,0H0l78.1,135L93.2,108.9C93.2,108.9,93.2,108.9,93.2,108.9z"/>
				<path class="st0" d="M103,76.2L58.9,0H0l48.6,84.1L0,168.1h58.9L103,92C105.8,87.1,105.8,81.1,103,76.2z"/>
				<path class="st5" d="M58.9,1.3L103,77.5c1.2,2.2,1.9,4.7,2,7.2c0.2-3-0.5-5.9-2-8.5L58.9,0H0l0.8,1.3H58.9z"/>
				<path class="st0" d="M103,76.2L58.9,0H0l48.6,84.1L0,168.1h58.9L103,92C105.8,87.1,105.8,81.1,103,76.2z"/>
				<path id="_Path_5" class="st11" d="M93.2,108.9L103,92c1.5-2.6,2.2-5.6,2-8.6c-0.1,2.5-0.8,5-2,7.2l-10.2,17.6L93.2,108.9z"/>
				<path class="st0" d="M103,76.2L58.9,0H0l48.6,84.1L0,168.1h58.9L103,92C105.8,87.1,105.8,81.1,103,76.2z"/>
				
					<radialGradient id="_Path_6_1_" cx="-1.31" cy="911.18" r="176.48" gradientTransform="matrix(1 0 0 1 0 -909.86)" gradientUnits="userSpaceOnUse">
					<stop  offset="0" style="stop-color:#FFFFFF;stop-opacity:0.1"/>
					<stop  offset="1" style="stop-color:#FFFFFF;stop-opacity:0"/>
				</radialGradient>
				<path id="_Path_6" class="st12" d="M103,76.2L58.9,0H0l48.6,84.1L0,168.1h58.9L103,92C105.8,87.1,105.8,81.1,103,76.2z"/>
			</g>
		</g>
	</g>
</g>
</svg>
