<?xml version="1.0" encoding="utf-8"?>
<!-- Generator: Adobe Illustrator 22.0.0, SVG Export Plug-In . SVG Version: 6.00 Build 0)  -->
<svg version="1.1" id="Layer_1" xmlns="http://www.w3.org/2000/svg" xmlns:xlink="http://www.w3.org/1999/xlink" x="0px" y="0px"
	 viewBox="0 0 512 512" style="enable-background:new 0 0 512 512;" xml:space="preserve">
<style type="text/css">
	.st0{fill:#FFFFFF;}
	.st1{fill:none;}
	.st2{fill:#FCBF12;}
	.st3{fill:#0A9C58;}
	.st4{opacity:0.2;fill:#BD3A26;enable-background:new    ;}
	.st5{opacity:0.2;fill:#263238;enable-background:new    ;}
	.st6{opacity:0.2;fill:#FFFFFF;enable-background:new    ;}
	.st7{fill:url(#_Path_2_1_);}
	.st8{fill:url(#_Path_3_1_);}
	.st9{fill:#547DBE;}
	.st10{fill:#DA4536;}
	.st11{opacity:0.2;fill:#2D2F78;enable-background:new    ;}
	.st12{opacity:0.2;fill:#3E2723;enable-background:new    ;}
	.st13{fill:url(#_Path_6_1_);}
</style>
<circle class="st0" cx="256" cy="256" r="250"/>
<g id="Layer_2_1_">
	<g id="Layer_1-2">
		<g id="_Group_">
			<g id="_Group_2">
				<path class="st1" d="M353.4,240.8L268.3,93.7H154.6L248.4,256l-93.8,162.2h113.7l85.1-146.9
					C358.8,261.8,358.8,250.3,353.4,240.8z"/>
				<path id="_Path_" class="st2" d="M304.6,353l-27-46.7l-64.7,112h55.4l37.1-63.9L304.6,353z"/>
				<path class="st1" d="M353.4,240.8L268.3,93.7H154.6L248.4,256l-93.8,162.2h113.7l85.1-146.9
					C358.8,261.8,358.8,250.3,353.4,240.8z"/>
				<path class="st3" d="M248.4,256l29.2,50.4l-64.7,112h-58.3L248.4,256z"/>
				<path class="st1" d="M353.4,240.8L268.3,93.7H154.6L248.4,256l-93.8,162.2h113.7l85.1-146.9
					C358.8,261.8,358.8,250.3,353.4,240.8z"/>
				<path class="st4" d="M268.3,415.7h-53.9l-1.5,2.5h55.4l37.1-63.9l-0.8-1.4L268.3,415.7L268.3,415.7z"/>
				<path class="st1" d="M353.4,240.8L268.3,93.7H154.6L248.4,256l-93.8,162.2h113.7l85.1-146.9
					C358.8,261.8,358.8,250.3,353.4,240.8z"/>
				<path class="st5" d="M156.1,415.7l-1.5,2.5h58.3l1.5-2.5H156.1L156.1,415.7z"/>
				<path class="st1" d="M353.4,240.8L268.3,93.7H154.6L248.4,256l-93.8,162.2h113.7l85.1-146.9
					C358.8,261.8,358.8,250.3,353.4,240.8z"/>
				<path class="st6" d="M154.6,418.2h1.5l93.1-161l-0.8-1.4L154.6,418.2z"/>
				<path class="st1" d="M353.4,240.8L268.3,93.7H154.6L248.4,256l-93.8,162.2h113.7l85.1-146.9
					C358.8,261.8,358.8,250.3,353.4,240.8z"/>
				
					<radialGradient id="_Path_2_1_" cx="304.862" cy="-749.2707" r="112.2417" gradientTransform="matrix(1 0 0 -1 0 -395.96)" gradientUnits="userSpaceOnUse">
					<stop  offset="0" style="stop-color:#BD3A26;stop-opacity:0.2"/>
					<stop  offset="1" style="stop-color:#BD3A26;stop-opacity:2.000000e-02"/>
				</radialGradient>
				<path id="_Path_2" class="st7" d="M305.3,354.3l-27.6-47.9l-6.8,11.8L305.3,354.3z"/>
				<path class="st1" d="M353.4,240.8L268.3,93.7H154.6L248.4,256l-93.8,162.2h113.7l85.1-146.9
					C358.8,261.8,358.8,250.3,353.4,240.8z"/>
				
					<radialGradient id="_Path_3_1_" cx="304.5531" cy="-749.985" r="113.1684" gradientTransform="matrix(1 0 0 -1 0 -395.96)" gradientUnits="userSpaceOnUse">
					<stop  offset="0" style="stop-color:#263238;stop-opacity:0.2"/>
					<stop  offset="1" style="stop-color:#263238;stop-opacity:2.000000e-02"/>
				</radialGradient>
				<path id="_Path_3" class="st8" d="M270.8,318.2l6.8-11.8L248.4,256l-13.9,24.1C234.5,280,270.8,318.2,270.8,318.2z"/>
				<path class="st1" d="M353.4,240.8L268.3,93.7H154.6L248.4,256l-93.8,162.2h113.7l85.1-146.9
					C358.8,261.8,358.8,250.3,353.4,240.8z"/>
				<g id="_Group_3">
					<g id="_Group_4">
						<path id="_Path_4" class="st9" d="M212.9,93.7h-58.3l150.8,260.6l29.2-50.4l0,0L212.9,93.7z"/>
					</g>
				</g>
				<path class="st1" d="M353.4,240.8L268.3,93.7H154.6L248.4,256l-93.8,162.2h113.7l85.1-146.9
					C358.8,261.8,358.8,250.3,353.4,240.8z"/>
				<path class="st10" d="M353.4,271.3c5.4-9.5,5.4-21,0-30.5L268.3,93.7h-55.4l121.6,210.2L353.4,271.3z"/>
				<path class="st1" d="M353.4,240.8L268.3,93.7H154.6L248.4,256l-93.8,162.2h113.7l85.1-146.9
					C358.8,261.8,358.8,250.3,353.4,240.8z"/>
				<path class="st11" d="M334.5,303.9l-0.8-1.2L305.3,352L156.1,93.7h-1.5l150.8,260.6L334.5,303.9L334.5,303.9z"/>
				<path class="st1" d="M353.4,240.8L268.3,93.7H154.6L248.4,256l-93.8,162.2h113.7l85.1-146.9
					C358.8,261.8,358.8,250.3,353.4,240.8z"/>
				<path class="st6" d="M268.3,96.2l85.1,147.1c2.3,4.2,3.7,9.1,3.9,13.9c0.4-5.8-1-11.4-3.9-16.4L268.3,93.7H154.6l1.5,2.5H268.3z
					"/>
				<path class="st1" d="M353.4,240.8L268.3,93.7H154.6L248.4,256l-93.8,162.2h113.7l85.1-146.9
					C358.8,261.8,358.8,250.3,353.4,240.8z"/>
				<path id="_Path_5" class="st12" d="M334.5,303.9l18.9-32.6c2.9-5,4.2-10.8,3.9-16.6c-0.2,4.8-1.5,9.7-3.9,13.9l-19.7,34
					L334.5,303.9z"/>
				<path class="st1" d="M353.4,240.8L268.3,93.7H154.6L248.4,256l-93.8,162.2h113.7l85.1-146.9
					C358.8,261.8,358.8,250.3,353.4,240.8z"/>
				
					<radialGradient id="_Path_6_1_" cx="152.021" cy="-492.1997" r="340.7021" gradientTransform="matrix(1 0 0 -1 0 -395.96)" gradientUnits="userSpaceOnUse">
					<stop  offset="0" style="stop-color:#FFFFFF;stop-opacity:0.1"/>
					<stop  offset="1" style="stop-color:#FFFFFF;stop-opacity:0"/>
				</radialGradient>
				<path id="_Path_6" class="st13" d="M353.4,240.8L268.3,93.7H154.6L248.4,256l-93.8,162.2h113.7l85.1-146.9
					C358.8,261.8,358.8,250.3,353.4,240.8z"/>
			</g>
		</g>
	</g>
</g>
</svg>
