<svg id="Layer_2" xmlns="http://www.w3.org/2000/svg" viewBox="0 0 2230.3 417.4"><style>.st0{fill:#557ebf}.st1{fill:#27baa2}.st4{fill:#4d4d4d}</style><path class="st0" d="M97.3 90.3h72.1v234.1H97.3V90.3z"/><path class="st1" d="M312.7 90.3h72.6v234.1h-72.6V90.3z"/><path d="M313.2 323.8h72.6L277.6 125.3h-72.1l107.7 198.5z" fill="#62c3a6"/><path d="M169.4 323.8H97.3l108.2-198.5h71.6L169.4 323.8z" fill="#59c2ef"/><path class="st0" d="M54.9 359.9V55.2h79V8.8H26.7C16.3 8.8 8.9 17.2 8.9 27v357.5c0 10.4 8.4 20.2 18.3 20.2h107.2v-45.4H54.9v.6z"/><path class="st1" d="M428.2 359.9V55.2h-79V8.8h107.2c10.4 0 18.3 8.4 18.3 18.3v357.5c0 10.4-8.4 20.2-18.3 20.2H349.2v-45.4h79v.5z"/><g><path class="st4" d="M732.6 41.6h17.8L715 174.5h-17.5l-28.6-87.6h-.7l-28.6 87.6h-17.5L585.2 41.6H603l28 104.5h.7l28.8-86.7h16l28.8 86.7h.7l26.6-104.5zM748.4 129.1c0-14 4.4-25.6 13.2-34.7 8.9-9.2 20.1-13.7 33.6-13.7s24.6 4.6 33.4 13.7c8.9 9.2 13.4 20.7 13.4 34.7 0 14.1-4.5 25.7-13.4 34.7-8.8 9.2-19.9 13.7-33.4 13.7s-24.7-4.6-33.6-13.7c-8.8-9.2-13.2-20.7-13.2-34.7zm17.1 0c0 9.8 2.8 17.7 8.5 23.8 5.7 6.1 12.7 9.1 21.2 9.1 8.4 0 15.5-3 21.2-9.1 5.7-6.1 8.5-14 8.5-23.8 0-9.7-2.8-17.5-8.5-23.6-5.8-6.2-12.9-9.3-21.2-9.3-8.3 0-15.3 3.1-21.2 9.3-5.7 6.1-8.5 13.9-8.5 23.6zM872.8 174.5h-17.1v-91H872v12.6h.7c2.6-4.5 6.6-8.2 12-11.1 5.4-3 10.7-4.5 16.1-4.5 6.7 0 12.6 1.5 17.6 4.6 5.1 3.1 8.8 7.4 11.1 12.8 7.5-11.6 18-17.5 31.4-17.5 10.5 0 18.6 3.2 24.3 9.7 5.7 6.4 8.5 15.6 8.5 27.5v56.8h-17.1v-54.2c0-8.5-1.5-14.7-4.6-18.5-3.1-3.8-8.3-5.7-15.6-5.7-6.6 0-12.1 2.8-16.5 8.4s-6.7 12.1-6.7 19.7v50.3h-17.1v-54.2c0-8.5-1.5-14.7-4.6-18.5-3.1-3.8-8.3-5.7-15.6-5.7-6.6 0-12.1 2.8-16.5 8.4-4.5 5.6-6.7 12.1-6.7 19.7v50.4zM1054.7 177.5c-13.4 0-24.4-4.6-33-13.7-8.7-9.2-13-20.7-13-34.7 0-13.9 4.2-25.4 12.6-34.6 8.4-9.2 19.2-13.8 32.3-13.8 13.5 0 24.2 4.4 32.2 13.1 8 8.7 12 20.9 12 36.7l-.2 1.9h-71.5c.2 8.9 3.2 16.1 8.9 21.5 5.7 5.4 12.5 8.2 20.4 8.2 10.9 0 19.4-5.4 25.6-16.3l15.2 7.4c-4.1 7.7-9.7 13.7-17 18-7.1 4.2-15.3 6.3-24.5 6.3zm-27.3-59.4h52.2c-.5-6.3-3.1-11.5-7.7-15.7-4.6-4.1-10.9-6.2-18.7-6.2-6.4 0-12 2-16.6 5.9-4.6 4-7.7 9.3-9.2 16zM1113.4 83.6h16.3v12.6h.7c2.6-4.5 6.6-8.2 12-11.1 5.4-3 11-4.5 16.8-4.5 11.1 0 19.7 3.2 25.7 9.6 6 6.4 9 15.4 9 27.2v57.2h-17.1v-56.1c-.4-14.9-7.9-22.3-22.5-22.3-6.8 0-12.5 2.8-17.1 8.3-4.6 5.5-6.9 12.1-6.9 19.8v50.3h-17.1v-91zM1295.7 58v116.6h-17.1V58h-37.1V41.6h91.3V58h-37.1zM1373.6 177.5c-13.4 0-24.4-4.6-33-13.7-8.7-9.2-13-20.7-13-34.7 0-13.9 4.2-25.4 12.6-34.6 8.4-9.2 19.2-13.8 32.3-13.8 13.5 0 24.2 4.4 32.2 13.1 8 8.7 12 20.9 12 36.7l-.2 1.9H1345c.2 8.9 3.2 16.1 8.9 21.5 5.7 5.4 12.5 8.2 20.4 8.2 10.9 0 19.4-5.4 25.6-16.3l15.2 7.4c-4.1 7.7-9.7 13.7-17 18-7.1 4.2-15.3 6.3-24.5 6.3zm-27.3-59.4h52.2c-.5-6.3-3.1-11.5-7.7-15.7-4.6-4.1-10.9-6.2-18.7-6.2-6.4 0-12 2-16.6 5.9-4.6 4-7.7 9.3-9.2 16zM1474.8 177.5c-13.5 0-24.7-4.6-33.6-13.7-8.8-9.4-13.2-21-13.2-34.7 0-14 4.4-25.6 13.2-34.7 8.9-9.2 20.1-13.7 33.6-13.7 9.3 0 17.4 2.3 24.3 7 6.9 4.6 12.1 11 15.6 19.2l-15.6 6.5c-4.8-11.4-13.3-17.1-25.4-17.1-7.8 0-14.5 3.2-20.2 9.5-5.6 6.3-8.4 14.1-8.4 23.4s2.8 17.1 8.4 23.4c5.7 6.3 12.4 9.5 20.2 9.5 12.5 0 21.3-5.7 26.4-17.1l15.2 6.5c-3.3 8.2-8.6 14.6-15.7 19.2-7.1 4.5-15.4 6.8-24.8 6.8zM1530.1 41.6h17.1v42l-.7 12.6h.7c2.6-4.5 6.6-8.2 12-11.1 5.4-3 11-4.5 16.8-4.5 11.1 0 19.7 3.2 25.7 9.6 6 6.4 9 15.4 9 27.2v57.2h-17.1v-53.8c0-16.3-7.2-24.5-21.7-24.5-6.9 0-12.8 2.9-17.5 8.6-4.8 5.8-7.1 12.5-7.1 20.1v49.6h-17.1v-133zM1650.8 174.5h-17.1V41.6h17.1l46.2 80.9h.7l46.2-80.9h17.1v132.9h-17V95.6l.7-22.3h-.7l-41.6 73h-10l-41.6-73h-.7l.7 22.3v78.9zM1816.6 80.6c12.6 0 22.6 3.4 29.9 10.1 7.3 6.7 11 16 11 27.8v56.1h-16.3V162h-.7c-7.1 10.4-16.5 15.6-28.2 15.6-10 0-18.4-3-25.2-8.9-6.7-5.9-10.1-13.4-10.1-22.3 0-9.4 3.6-16.9 10.7-22.5 7.1-5.6 16.6-8.4 28.5-8.4 10.1 0 18.5 1.9 25.1 5.6v-3.9c0-5.9-2.4-11-7.1-15.1-4.7-4.1-10.2-6.2-16.5-6.2-9.5 0-17.1 4-22.6 12.1l-15-9.5c8-11.9 20.3-17.9 36.5-17.9zm-22.1 66.1c0 4.5 1.9 8.2 5.7 11.1 3.8 3 8.2 4.5 13.3 4.5 7.2 0 13.6-2.7 19.2-8s8.4-11.6 8.4-18.7c-5.3-4.2-12.7-6.3-22.3-6.3-6.9 0-12.7 1.7-17.4 5-4.6 3.3-6.9 7.5-6.9 12.4zM1956.7 174.5h-20.6l-28.4-42.9-13.9 13.7v29.1h-17.1V41.6h17.1v81.9l39.4-39.9h21.9v.7l-35.5 35.3 37.1 54.2v.7zM2004.5 177.5c-13.4 0-24.4-4.6-33-13.7-8.7-9.2-13-20.7-13-34.7 0-13.9 4.2-25.4 12.6-34.6 8.4-9.2 19.2-13.8 32.3-13.8 13.5 0 24.2 4.4 32.2 13.1 8 8.7 12 20.9 12 36.7l-.2 1.9h-71.5c.2 8.9 3.2 16.1 8.9 21.5 5.7 5.4 12.5 8.2 20.4 8.2 10.9 0 19.4-5.4 25.6-16.3l15.2 7.4c-4.1 7.7-9.7 13.7-17 18-7.2 4.2-15.4 6.3-24.5 6.3zm-27.3-59.4h52.2c-.5-6.3-3.1-11.5-7.7-15.7-4.6-4.1-10.9-6.2-18.7-6.2-6.4 0-12 2-16.6 5.9-4.7 4-7.7 9.3-9.2 16zM2080.2 174.5h-17.1v-91h16.3v14.9h.7c1.7-4.8 5.3-8.9 10.7-12.3 5.4-3.4 10.7-5.1 15.9-5.1 4.9 0 9.2.7 12.6 2.2l-5.2 16.5c-2.1-.9-5.4-1.3-10-1.3-6.4 0-12 2.6-16.8 7.8-4.8 5.2-7.1 11.3-7.1 18.2v50.1zM2196.4 149.3c0 7.9-3.5 14.6-10.4 20s-15.7 8.2-26.2 8.2c-9.2 0-17.2-2.4-24.1-7.1-6.9-4.8-11.9-11-14.9-18.8l15.2-6.5c2.2 5.4 5.5 9.7 9.7 12.7 4.3 3 8.9 4.5 14 4.5 5.4 0 10-1.2 13.6-3.5 3.6-2.3 5.5-5.1 5.5-8.4 0-5.8-4.5-10.1-13.4-12.8l-15.6-3.9c-17.7-4.5-26.5-13-26.5-25.6 0-8.3 3.4-14.9 10.1-20 6.7-5 15.4-7.5 25.9-7.5 8 0 15.3 1.9 21.8 5.8 6.5 3.8 11 9 13.6 15.4l-15.2 6.3c-1.7-3.8-4.5-6.8-8.4-9-3.9-2.2-8.3-3.2-13.1-3.2-4.5 0-8.4 1.1-12 3.3-3.5 2.2-5.3 5-5.3 8.2 0 5.2 4.9 8.9 14.7 11.1l13.7 3.5c18.3 4.5 27.3 13.6 27.3 27.3zM658.2 375.8c-19.7 0-36.1-6.6-49.4-19.9-13.1-13.2-19.7-29.8-19.7-49.6s6.6-36.3 19.7-49.4c13.1-13.4 29.6-20 49.4-20 20.1 0 36.3 7.2 48.8 21.7l-12.3 11.9c-9.5-11.5-21.7-17.3-36.6-17.3-14.7 0-27 5-36.9 14.9-9.8 9.8-14.7 22.5-14.7 38.2 0 15.7 4.9 28.5 14.7 38.2 9.9 9.9 22.2 14.9 36.9 14.9 15.5 0 28.9-6.5 40.3-19.5l12.4 12.1c-6.3 7.6-14 13.4-23.2 17.5-9.1 4.2-18.9 6.3-29.4 6.3zM758.8 278.9c12.6 0 22.6 3.4 29.9 10.1 7.3 6.7 11 16 11 27.8v56.1h-16.3v-12.6h-.7c-7.1 10.4-16.5 15.6-28.2 15.6-10 0-18.4-3-25.2-8.9-6.7-5.9-10.1-13.4-10.1-22.3 0-9.4 3.6-16.9 10.7-22.5 7.1-5.6 16.6-8.4 28.5-8.4 10.1 0 18.5 1.9 25.1 5.6v-3.9c0-5.9-2.4-11-7.1-15.1-4.7-4.1-10.2-6.2-16.5-6.2-9.5 0-17.1 4-22.6 12.1l-15-9.5c8-12 20.3-17.9 36.5-17.9zM736.7 345c0 4.5 1.9 8.2 5.7 11.1 3.8 3 8.2 4.5 13.3 4.5 7.2 0 13.6-2.7 19.2-8s8.4-11.6 8.4-18.8c-5.3-4.2-12.7-6.3-22.3-6.3-6.9 0-12.7 1.7-17.4 5-4.6 3.4-6.9 7.5-6.9 12.5zM887.6 347.6c0 7.9-3.5 14.6-10.4 20.1-6.9 5.4-15.7 8.2-26.2 8.2-9.2 0-17.2-2.4-24.1-7.1-6.9-4.8-11.9-11-14.9-18.8l15.2-6.5c2.2 5.4 5.5 9.7 9.7 12.7 4.3 3 8.9 4.5 14 4.5 5.4 0 10-1.2 13.6-3.5 3.6-2.4 5.5-5.1 5.5-8.4 0-5.8-4.5-10.1-13.4-12.8l-15.6-3.9c-17.7-4.5-26.5-13-26.5-25.6 0-8.3 3.4-14.9 10.1-20 6.7-5 15.4-7.5 25.9-7.5 8 0 15.3 1.9 21.8 5.8 6.5 3.8 11 9 13.6 15.4l-15.2 6.3c-1.7-3.8-4.5-6.8-8.4-9-3.9-2.2-8.3-3.2-13.1-3.2-4.5 0-8.4 1.1-12 3.3-3.5 2.2-5.3 5-5.3 8.2 0 5.2 4.9 8.9 14.7 11.1l13.7 3.5c18.3 4.4 27.3 13.5 27.3 27.2zM937.9 278.9c12.6 0 22.6 3.4 29.9 10.1 7.3 6.7 11 16 11 27.8v56.1h-16.3v-12.6h-.7c-7.1 10.4-16.5 15.6-28.2 15.6-10 0-18.4-3-25.2-8.9-6.7-5.9-10.1-13.4-10.1-22.3 0-9.4 3.6-16.9 10.7-22.5 7.1-5.6 16.6-8.4 28.5-8.4 10.1 0 18.5 1.9 25.1 5.6v-3.9c0-5.9-2.4-11-7.1-15.1-4.7-4.1-10.2-6.2-16.5-6.2-9.5 0-17.1 4-22.6 12.1l-15-9.5c8.1-12 20.3-17.9 36.5-17.9zM915.8 345c0 4.5 1.9 8.2 5.7 11.1 3.8 3 8.2 4.5 13.3 4.5 7.2 0 13.6-2.7 19.2-8s8.4-11.6 8.4-18.8c-5.3-4.2-12.7-6.3-22.3-6.3-6.9 0-12.7 1.7-17.4 5-4.5 3.4-6.9 7.5-6.9 12.5zM1046.2 375.8c-6.7 0-12.8-1.4-18.3-4.3-5.5-2.8-9.7-6.6-12.7-11.3h-.7v12.6h-16.3V239.9h17.1v42l-.7 12.6h.7c3-4.7 7.2-8.5 12.7-11.3 5.5-2.8 11.6-4.3 18.3-4.3 12 0 22.2 4.7 30.4 14.1 8.5 9.5 12.8 21 12.8 34.3 0 13.5-4.3 24.9-12.8 34.3-8.4 9.5-18.5 14.2-30.5 14.2zm-2.8-15.6c8.2 0 15-3.1 20.6-9.3 5.6-6.1 8.4-13.9 8.4-23.6 0-9.5-2.8-17.4-8.4-23.6-5.6-6.2-12.4-9.3-20.6-9.3-8.3 0-15.2 3.1-20.8 9.3-5.4 6.2-8.2 14-8.2 23.6 0 9.7 2.7 17.6 8.2 23.8 5.5 6.1 12.5 9.1 20.8 9.1zM1121.2 239.9v132.9h-17.1V239.9h17.1zM1175.6 278.9c12.6 0 22.6 3.4 29.9 10.1 7.3 6.7 11 16 11 27.8v56.1h-16.3v-12.6h-.7c-7.1 10.4-16.5 15.6-28.2 15.6-10 0-18.4-3-25.2-8.9-6.7-5.9-10.1-13.4-10.1-22.3 0-9.4 3.6-16.9 10.7-22.5 7.1-5.6 16.6-8.4 28.5-8.4 10.1 0 18.5 1.9 25.1 5.6v-3.9c0-5.9-2.4-11-7.1-15.1-4.7-4.1-10.2-6.2-16.5-6.2-9.5 0-17.1 4-22.6 12.1l-15-9.5c8-12 20.2-17.9 36.5-17.9zm-22.1 66.1c0 4.5 1.9 8.2 5.7 11.1 3.8 3 8.2 4.5 13.3 4.5 7.2 0 13.6-2.7 19.2-8s8.4-11.6 8.4-18.8c-5.3-4.2-12.7-6.3-22.3-6.3-6.9 0-12.7 1.7-17.4 5-4.6 3.4-6.9 7.5-6.9 12.5zM1235.7 281.9h16.3v12.6h.7c2.6-4.5 6.6-8.2 12-11.1 5.4-3 11-4.5 16.8-4.5 11.1 0 19.7 3.2 25.7 9.6 6 6.4 9 15.4 9 27.2v57.2h-17.1v-56.1c-.4-14.9-7.9-22.3-22.5-22.3-6.8 0-12.5 2.8-17.1 8.3-4.6 5.5-6.9 12.1-6.9 19.8v50.3h-17.1v-91zM1377.9 375.8c-13.5 0-24.7-4.6-33.6-13.7-8.8-9.4-13.2-21-13.2-34.7 0-14 4.4-25.6 13.2-34.7 8.9-9.2 20.1-13.7 33.6-13.7 9.3 0 17.4 2.3 24.3 7 6.9 4.6 12.1 11 15.6 19.2l-15.6 6.5c-4.8-11.4-13.3-17.1-25.4-17.1-7.8 0-14.5 3.2-20.2 9.5-5.6 6.3-8.4 14.1-8.4 23.4s2.8 17.1 8.4 23.4c5.7 6.3 12.4 9.5 20.2 9.5 12.5 0 21.3-5.7 26.4-17.1l15.2 6.5c-3.3 8.2-8.6 14.6-15.7 19.2-7.1 4.5-15.4 6.8-24.8 6.8zM1466.8 278.9c12.6 0 22.6 3.4 29.9 10.1 7.3 6.7 11 16 11 27.8v56.1h-16.3v-12.6h-.7c-7.1 10.4-16.5 15.6-28.2 15.6-10 0-18.4-3-25.2-8.9-6.7-5.9-10.1-13.4-10.1-22.3 0-9.4 3.6-16.9 10.7-22.5 7.1-5.6 16.6-8.4 28.5-8.4 10.1 0 18.5 1.9 25.1 5.6v-3.9c0-5.9-2.4-11-7.1-15.1-4.7-4.1-10.2-6.2-16.5-6.2-9.5 0-17.1 4-22.6 12.1l-15-9.5c8.1-12 20.3-17.9 36.5-17.9zm-22.1 66.1c0 4.5 1.9 8.2 5.7 11.1 3.8 3 8.2 4.5 13.3 4.5 7.2 0 13.6-2.7 19.2-8s8.4-11.6 8.4-18.8c-5.3-4.2-12.7-6.3-22.3-6.3-6.9 0-12.7 1.7-17.4 5-4.5 3.4-6.9 7.5-6.9 12.5z"/></g></svg>