<svg id="Layer_4" xmlns="http://www.w3.org/2000/svg" viewBox="0 0 1812.8 200"><style>.st1{fill:none}.st6{opacity:.2;fill:#fff;enable-background:new}</style><path d="M826.1 161.5c-17.4 0-32-5.9-43.7-17.6-11.6-11.6-17.4-26.7-17.4-45.3s5.8-33.7 17.4-45.3c11.7-11.7 26.3-17.6 43.7-17.6 17.6 0 32 6.8 43.3 20.4L883.9 42c-14.9-17-34.1-25.5-57.8-25.5-23.4 0-42.9 7.9-58.4 23.7-15.5 15.5-23.3 35-23.3 58.4s7.8 43 23.3 58.7c15.7 15.7 35.2 23.5 58.4 23.5 12.4 0 24.1-2.5 34.9-7.4 10.8-4.9 20-11.8 27.5-20.8l-14.7-14.3c-13.5 15.5-29.4 23.2-47.7 23.2zM427.9 20h-48.1v157.3h48.1c24 0 43.3-7.2 57.9-21.6 14.6-14.4 21.9-33.4 21.9-57 0-23.4-7.3-42.4-21.9-56.9C471.2 27.2 451.9 20 427.9 20zm43.2 122.2c-10.5 10.5-25 15.7-43.3 15.7H400V39.3h27.9c18.3 0 32.7 5.3 43.3 15.8s15.8 25 15.8 43.5c0 18.6-5.3 33.2-15.9 43.6zM282.5 93.1V112h57.1c-1.6 15.4-7.6 27.5-18 36.3s-23.4 13.2-39.1 13.2c-17.1 0-31.6-5.9-43.5-17.8-11.7-12-17.6-27-17.6-45s5.9-33 17.6-45c11.9-11.9 26.4-17.8 43.5-17.8 8.8 0 17 1.6 24.7 4.9s14 7.9 18.8 13.7L340.5 40c-6.6-7.5-15-13.3-25.3-17.4s-21.2-6.2-32.7-6.2c-22.8 0-42.2 7.9-58 23.7s-23.7 35.3-23.7 58.4 7.9 42.6 23.7 58.4 35.2 23.7 58 23.7c23.9 0 43.1-7.8 57.8-23.3 13-13 19.6-30.5 19.6-52.5 0-3.8-.4-7.8-1.1-11.9h-76.3v.2zm319.3 0V112h57.1c-1.6 15.4-7.6 27.5-18 36.3s-23.4 13.2-39.1 13.2c-17.1 0-31.6-5.9-43.5-17.8-11.7-12-17.6-27-17.6-45s5.9-33 17.6-45c11.9-11.9 26.4-17.8 43.5-17.8 8.8 0 17 1.6 24.7 4.9s14 7.9 18.8 13.7L659.8 40c-6.6-7.5-15-13.3-25.3-17.4s-21.2-6.2-32.7-6.2c-22.8 0-42.2 7.9-58 23.7C527.9 56 520 75.5 520 98.6s7.9 42.6 23.7 58.4 35.2 23.7 58 23.7c23.9 0 43.1-7.8 57.8-23.3 13-13 19.6-30.5 19.6-52.5 0-3.8-.4-7.8-1.1-11.9h-76.2v.1zm379.4-15c-8.6-8-20.4-12-35.4-12-19.2 0-33.7 7-43.5 21.1l17.8 11.2c6.6-9.5 15.5-14.3 26.8-14.3 7.5 0 14 2.5 19.6 7.4s8.3 10.9 8.3 17.9v4.6c-7.8-4.4-17.7-6.6-29.7-6.6-14.1 0-25.3 3.3-33.7 9.9s-12.6 15.5-12.6 26.6c0 10.5 4 19.3 12 26.4 8 7 17.9 10.5 29.8 10.5 13.9 0 25-6.2 33.4-18.5h.9v14.9h19.3v-66.3c0-13.9-4.4-24.8-13-32.8zm-16.4 75.2c-6.7 6.3-14.2 9.4-22.7 9.4-6 0-11.2-1.8-15.7-5.3s-6.7-7.9-6.7-13.2c0-5.9 2.7-10.8 8.2-14.7 5.5-4 12.3-5.9 20.5-5.9 11.3 0 20.1 2.5 26.4 7.5 0 8.5-3.3 15.9-10 22.2zm310.1-87.2c-7.9 0-15.1 1.7-21.6 5.1s-11.5 7.8-15 13.4h-.9l.9-14.9V20H1218v157.3h19.3v-14.9h.9c3.5 5.6 8.5 10 15 13.4s13.7 5.1 21.6 5.1c14.2 0 26.2-5.6 36-16.7 10.1-11.1 15.2-24.7 15.2-40.6 0-15.8-5.1-29.4-15.2-40.6-9.7-11.3-21.7-16.9-35.9-16.9zm21.1 85.3c-6.6 7.3-14.7 11-24.4 11-9.8 0-18-3.6-24.6-10.8-6.4-7.3-9.7-16.7-9.7-28.1 0-11.3 3.2-20.6 9.7-27.9 6.6-7.3 14.8-11 24.6-11 9.7 0 17.8 3.7 24.4 11s9.9 16.6 9.9 27.9c0 11.4-3.3 20.7-9.9 27.9zm356.3 10.9c-9.2 0-17.2-3.7-23.9-11.2-6.6-7.5-9.9-16.7-9.9-27.7s3.3-20.2 9.9-27.7c6.7-7.5 14.7-11.2 23.9-11.2 14.4 0 24.4 6.7 30.1 20.2l18.5-7.7c-4.1-9.7-10.3-17.2-18.5-22.7s-17.8-8.2-28.8-8.2c-16 0-29.2 5.4-39.8 16.3-10.4 10.8-15.6 24.5-15.6 41.1 0 16.3 5.2 30 15.6 41.1 10.5 10.8 23.8 16.3 39.8 16.3 11.1 0 20.9-2.7 29.3-8.2s14.6-13.1 18.6-22.7l-18-7.7c-6 13.3-16.4 20-31.2 20zm-108.7-96.2c-6.9 0-13.5 1.8-19.9 5.3s-11.1 7.9-14.2 13.2h-.9v-15h-19.3v107.7h20.2v-59.5c0-9.1 2.7-16.9 8.1-23.4s12.2-9.8 20.2-9.8c17.3 0 26.1 8.8 26.6 26.4v66.3h20.2v-67.7c0-13.9-3.6-24.6-10.7-32.2-6.9-7.5-17.1-11.3-30.3-11.3zm248.9 12c-8.6-8-20.4-12-35.4-12-19.2 0-33.7 7-43.5 21.1l17.8 11.2c6.6-9.5 15.5-14.3 26.8-14.3 7.5 0 14 2.5 19.6 7.4s8.3 10.9 8.3 17.9v4.6c-7.8-4.4-17.7-6.6-29.7-6.6-14.1 0-25.3 3.3-33.7 9.9-8.4 6.6-12.6 15.5-12.6 26.6 0 10.5 4 19.3 12 26.4 8 7 17.9 10.5 29.8 10.5 13.9 0 25-6.2 33.4-18.5h.9v14.9h19.3v-66.3c-.1-13.9-4.4-24.8-13-32.8zm-16.4 75.2c-6.7 6.3-14.2 9.4-22.7 9.4-6 0-11.2-1.8-15.7-5.3s-6.7-7.9-6.7-13.2c0-5.9 2.7-10.8 8.2-14.7 5.5-4 12.3-5.9 20.5-5.9 11.3 0 20.1 2.5 26.4 7.5 0 8.5-3.3 15.9-10 22.2zm-713.2-38.2l-16.3-4.2c-11.6-2.6-17.4-7-17.4-13.2 0-3.8 2.1-7 6.3-9.7 4.2-2.6 8.9-4 14.2-4 5.7 0 10.9 1.3 15.5 3.8 4.6 2.6 7.9 6.1 10 10.7l18-7.5c-3.1-7.6-8.5-13.7-16.1-18.2-7.7-4.5-16.3-6.8-25.8-6.8-12.5 0-22.7 3-30.6 8.9-8 5.9-12 13.8-12 23.6 0 14.9 10.5 25 31.4 30.3l18.5 4.6c10.5 3.2 15.8 8.3 15.8 15.2 0 3.8-2.2 7.1-6.5 9.9-4.3 2.8-9.7 4.2-16.1 4.2-6 0-11.5-1.8-16.6-5.4-5.1-3.6-8.9-8.6-11.5-15l-18 7.7c3.5 9.2 9.4 16.7 17.6 22.3s17.7 8.5 28.6 8.5c12.4 0 22.8-3.2 31-9.7 8.2-6.4 12.3-14.4 12.3-23.7-.2-16.2-10.9-27-32.3-32.3zm394.4-37c-8.6-8-20.4-12-35.4-12-19.2 0-33.7 7-43.5 21.1l17.8 11.2c6.6-9.5 15.5-14.3 26.8-14.3 7.5 0 14 2.5 19.6 7.4s8.3 10.9 8.3 17.9v4.6c-7.8-4.4-17.7-6.6-29.7-6.6-14.1 0-25.3 3.3-33.7 9.9-8.4 6.6-12.6 15.5-12.6 26.6 0 10.5 4 19.3 12 26.4 8 7 17.9 10.5 29.8 10.5 13.9 0 25-6.2 33.4-18.5h.9v14.9h19.3v-66.3c0-13.9-4.4-24.8-13-32.8zm-16.4 75.2c-6.7 6.3-14.2 9.4-22.7 9.4-6 0-11.2-1.8-15.7-5.3s-6.7-7.9-6.7-13.2c0-5.9 2.7-10.8 8.2-14.7 5.5-4 12.3-5.9 20.5-5.9 11.3 0 20.1 2.5 26.4 7.5 0 8.5-3.3 15.9-10 22.2zm-255-75.2c-8.6-8-20.4-12-35.4-12-19.2 0-33.7 7-43.5 21.1l17.8 11.2c6.6-9.5 15.5-14.3 26.8-14.3 7.5 0 14 2.5 19.6 7.4s8.3 10.9 8.3 17.9v4.6c-7.8-4.4-17.7-6.6-29.7-6.6-14.1 0-25.3 3.3-33.7 9.9-8.4 6.6-12.6 15.5-12.6 26.6 0 10.5 4 19.3 12 26.4 8 7 17.9 10.5 29.8 10.5 13.9 0 25-6.2 33.4-18.5h.9v14.9h19.3v-66.3c0-13.9-4.3-24.8-13-32.8zm-16.3 75.2c-6.7 6.3-14.2 9.4-22.7 9.4-6 0-11.2-1.8-15.7-5.3s-6.7-7.9-6.7-13.2c0-5.9 2.7-10.8 8.2-14.7 5.5-4 12.3-5.9 20.5-5.9 11.3 0 20.1 2.5 26.4 7.5 0 8.5-3.4 15.9-10 22.2zm170.9 24h20.2V20h-20.2v157.3z" fill="#757575"/><g id="XMLID_4_"><path id="XMLID_33_" class="st1" d="M122.2 90.6L69.9.2H0L57.7 100 0 199.8h69.9l52.2-90.4c3.4-5.8 3.4-13 .1-18.8z"/><path id="XMLID_32_" d="M92.2 159.7L75.6 131l-39.8 68.8h34l22.8-39.3-.4-.8z" fill="#ffc107"/><path id="XMLID_31_" class="st1" d="M122.2 90.6L69.9.2H0L57.7 100 0 199.8h69.9l52.2-90.4c3.4-5.8 3.4-13 .1-18.8z"/><path id="XMLID_30_" d="M57.7 100l17.9 31-39.8 68.8H0L57.7 100z" fill="#0f9d58"/><path id="XMLID_29_" class="st1" d="M122.2 90.6L69.9.2H0L57.7 100 0 199.8h69.9l52.2-90.4c3.4-5.8 3.4-13 .1-18.8z"/><path id="XMLID_28_" d="M69.9 198.2H36.6l-.8 1.6h34l22.8-39.3-.5-.8-22.2 38.5z" opacity=".2" fill="#bf360c"/><path id="XMLID_27_" class="st1" d="M122.2 90.6L69.9.2H0L57.7 100 0 199.8h69.9l52.2-90.4c3.4-5.8 3.4-13 .1-18.8z"/><path id="XMLID_26_" d="M.8 198.2l-.8 1.6h35.9l.8-1.6H.8z" opacity=".2" fill="#263238"/><path id="XMLID_25_" class="st1" d="M122.2 90.6L69.9.2H0L57.7 100 0 199.8h69.9l52.2-90.4c3.4-5.8 3.4-13 .1-18.8z"/><path id="XMLID_24_" class="st6" d="M0 199.8h.8l57.4-99-.5-.8L0 199.8z"/><path id="XMLID_23_" class="st1" d="M122.2 90.6L69.9.2H0L57.7 100 0 199.8h69.9l52.2-90.4c3.4-5.8 3.4-13 .1-18.8z"/><radialGradient id="XMLID_2_" cx="92.3648" cy="939.8344" r="69.0183" gradientTransform="translate(0 -780)" gradientUnits="userSpaceOnUse"><stop offset="0" stop-color="#bf360c" stop-opacity=".2"/><stop offset="1" stop-color="#bf360c" stop-opacity=".02"/></radialGradient><path id="XMLID_22_" d="M92.6 160.5l-17-29.5-4.2 7.2 21.2 22.3z" fill="url(#XMLID_2_)"/><path id="XMLID_21_" class="st1" d="M122.2 90.6L69.9.2H0L57.7 100 0 199.8h69.9l52.2-90.4c3.4-5.8 3.4-13 .1-18.8z"/><radialGradient id="XMLID_3_" cx="92.1684" cy="940.2709" r="69.5781" gradientTransform="translate(0 -780)" gradientUnits="userSpaceOnUse"><stop offset="0" stop-color="#263238" stop-opacity=".2"/><stop offset="1" stop-color="#263238" stop-opacity=".02"/></radialGradient><path id="XMLID_20_" d="M71.4 138.2l4.2-7.2-17.9-31-8.6 14.8 22.3 23.4z" fill="url(#XMLID_3_)"/><path id="XMLID_19_" class="st1" d="M122.2 90.6L69.9.2H0L57.7 100 0 199.8h69.9l52.2-90.4c3.4-5.8 3.4-13 .1-18.8z"/><g id="XMLID_16_"><g id="XMLID_17_"><path id="XMLID_18_" d="M35.9.2H0l92.6 160.3 17.9-31L35.9.2z" fill="#4285f4"/></g></g><path id="XMLID_15_" class="st1" d="M122.2 90.6L69.9.2H0L57.7 100 0 199.8h69.9l52.2-90.4c3.4-5.8 3.4-13 .1-18.8z"/><path id="XMLID_14_" d="M122.2 109.4c3.3-5.8 3.3-12.9 0-18.7L69.9.2h-34l74.7 129.3 11.6-20.1z" fill="#db4437"/><path id="XMLID_13_" class="st1" d="M122.2 90.6L69.9.2H0L57.7 100 0 199.8h69.9l52.2-90.4c3.4-5.8 3.4-13 .1-18.8z"/><path id="XMLID_12_" d="M110.6 129.5l-.5-.8-17.5 30.2L.8.2H0l92.6 160.3 18-31z" opacity=".2" fill="#1a237e"/><path id="XMLID_11_" class="st1" d="M122.2 90.6L69.9.2H0L57.7 100 0 199.8h69.9l52.2-90.4c3.4-5.8 3.4-13 .1-18.8z"/><path id="XMLID_10_" class="st6" d="M69.9 1.8l52.2 90.4c1.6 2.7 2.3 5.6 2.5 8.6.2-3.4-.6-7-2.5-10.1L69.9.2H0l.9 1.6h69z"/><path id="XMLID_9_" class="st1" d="M122.2 90.6L69.9.2H0L57.7 100 0 199.8h69.9l52.2-90.4c3.4-5.8 3.4-13 .1-18.8z"/><path id="XMLID_8_" d="M110.6 129.5l11.7-20.1c1.9-3.1 2.7-6.7 2.5-10.1-.2 3-.9 5.9-2.5 8.6l-12 20.9.3.7z" opacity=".2" fill="#3e2723"/><path id="XMLID_6_" class="st1" d="M122.2 90.6L69.9.2H0L57.7 100 0 199.8h69.9l52.2-90.4c3.4-5.8 3.4-13 .1-18.8z"/><radialGradient id="XMLID_7_" cx="-1.6216" cy="781.7678" r="209.4842" gradientTransform="translate(0 -780)" gradientUnits="userSpaceOnUse"><stop offset="0" stop-color="#fff" stop-opacity=".1"/><stop offset="1" stop-color="#fff" stop-opacity="0"/></radialGradient><path id="XMLID_5_" d="M122.2 90.6L69.9.2H0L57.7 100 0 199.8h69.9l52.2-90.4c3.4-5.8 3.4-13 .1-18.8z" fill="url(#XMLID_7_)"/></g></svg>